<svg width="25.003418" height="21.249512" viewBox="0 0 25.0034 21.2495" fill="none" xmlns="http://www.w3.org/2000/svg" xmlns:xlink="http://www.w3.org/1999/xlink">
	<desc>
			Created with Pixso.
	</desc>
	<defs/>
	<path id="Vector" d="M12.5 21.24C12.33 21.25 12.17 21.21 12.02 21.15C11.86 21.09 11.73 21 11.61 20.88L1.9 11.16C0.68 9.93 0 8.26 0 6.53C0 4.8 0.68 3.14 1.9 1.91C3.12 0.68 4.79 0 6.52 0C8.26 0 9.92 0.68 11.15 1.91L12.5 3.26L13.85 1.91C15.07 0.68 16.74 0 18.47 0C20.21 0 21.87 0.68 23.1 1.91C24.31 3.14 25 4.8 25 6.53C25 8.26 24.31 9.93 23.1 11.16L13.38 20.88C13.27 21 13.13 21.09 12.98 21.15C12.82 21.21 12.66 21.25 12.5 21.24Z" fill="#151515" fill-opacity="1.000000" fill-rule="nonzero"/>
</svg>
