<svg width="44.709351" height="44.712891" viewBox="0 0 44.7094 44.7129" fill="none" xmlns="http://www.w3.org/2000/svg" xmlns:xlink="http://www.w3.org/1999/xlink">
	<desc>
			Created with Pixso.
	</desc>
	<defs/>
	<path id="Vector" d="M22.35 0C34.7 0 44.7 10 44.7 22.35C44.7 34.7 34.7 44.7 22.35 44.7C18.73 44.7 15.24 43.84 12.1 42.22L3.54 44.6C2.06 45.02 0.51 44.15 0.1 42.66C-0.04 42.17 -0.04 41.65 0.1 41.16L2.49 32.62C0.86 29.47 0 25.97 0 22.35C0 10 10 0 22.35 0ZM22.35 3.35C11.86 3.35 3.35 11.86 3.35 22.35C3.35 25.64 4.18 28.8 5.75 31.6L6.08 32.2L3.6 41.11L12.51 38.62L13.11 38.96C15.91 40.52 19.07 41.35 22.35 41.35C32.84 41.35 41.35 32.84 41.35 22.35C41.35 11.86 32.84 3.35 22.35 3.35ZM22.35 30.17C23.58 30.17 24.59 31.17 24.59 32.41C24.59 33.64 23.58 34.64 22.35 34.64C21.12 34.64 20.11 33.64 20.11 32.41C20.11 31.17 21.12 30.17 22.35 30.17ZM22.35 10.61C25.74 10.61 28.5 13.37 28.5 16.76C28.5 19.02 27.83 20.28 26.15 22.03L25.77 22.42C24.38 23.81 24.03 24.4 24.03 25.7C24.03 26.63 23.28 27.38 22.35 27.38C21.42 27.38 20.67 26.63 20.67 25.7C20.67 23.44 21.34 22.18 23.02 20.43L23.4 20.05C24.79 18.66 25.14 18.07 25.14 16.76C25.14 15.22 23.89 13.97 22.35 13.97C20.9 13.97 19.71 15.07 19.57 16.48L19.56 16.76C19.56 17.69 18.8 18.44 17.88 18.44C16.95 18.44 16.2 17.69 16.2 16.76C16.2 13.37 18.95 10.61 22.35 10.61Z" fill="#212121" fill-opacity="1.000000" fill-rule="nonzero"/>
</svg>
