<svg width="30.000000" height="22.500000" viewBox="0 0 30 22.5" fill="none" xmlns="http://www.w3.org/2000/svg" xmlns:xlink="http://www.w3.org/1999/xlink">
	<desc>
			Created with Pixso.
	</desc>
	<defs/>
	<path id="Vector" d="M29.43 7.42C29.66 7.24 30 7.41 30 7.7L30 19.68C30 21.24 28.74 22.5 27.18 22.5L2.81 22.5C1.25 22.5 0 21.24 0 19.68L0 7.71C0 7.41 0.33 7.25 0.56 7.43C1.88 8.45 3.62 9.75 9.59 14.09C10.83 14.99 12.91 16.89 15 16.88C17.09 16.89 19.21 14.95 20.4 14.09C26.38 9.75 28.11 8.44 29.43 7.42ZM15 15C16.35 15.02 18.31 13.28 19.3 12.57C27.07 6.93 27.66 6.43 29.46 5.03C29.8 4.76 30 4.35 30 3.92L30 2.81C30 1.25 28.74 0 27.18 0L2.81 0C1.25 0 0 1.25 0 2.81L0 3.92C0 4.35 0.19 4.76 0.53 5.03C2.33 6.43 2.92 6.93 10.69 12.57C11.68 13.28 13.64 15.02 15 15Z" fill="#000000" fill-opacity="1.000000" fill-rule="nonzero"/>
</svg>
