<svg width="30.000000" height="30.000000" viewBox="0 0 30 30" fill="none" xmlns="http://www.w3.org/2000/svg" xmlns:xlink="http://www.w3.org/1999/xlink">
	<desc>
			Created with Pixso.
	</desc>
	<defs/>
	<mask id="mask3_10" mask-type="alpha" maskUnits="userSpaceOnUse" x="0.000000" y="0.000000" width="30.000000" height="30.000000">
		<rect id="Bounding box" width="30.000000" height="30.000000" fill="#D9D9D9" fill-opacity="1.000000"/>
	</mask>
	<g mask="url(#mask3_10)">
		<path id="favorite" d="M15 26.25L13.18 24.62C11.08 22.72 9.34 21.09 7.96 19.71C6.59 18.34 5.5 17.1 4.68 16.01C3.87 14.92 3.3 13.91 2.98 13C2.66 12.08 2.5 11.14 2.5 10.18C2.5 8.22 3.15 6.59 4.46 5.28C5.78 3.96 7.41 3.31 9.37 3.31C10.45 3.31 11.48 3.54 12.46 3.99C13.44 4.45 14.29 5.1 15 5.93C15.7 5.1 16.55 4.45 17.53 3.99C18.51 3.54 19.54 3.31 20.62 3.31C22.58 3.31 24.21 3.96 25.53 5.28C26.84 6.59 27.5 8.22 27.5 10.18C27.5 11.14 27.33 12.08 27.01 13C26.69 13.91 26.12 14.92 25.31 16.01C24.5 17.1 23.4 18.34 22.03 19.71C20.65 21.09 18.91 22.72 16.81 24.62L15 26.25ZM15 22.87C17 21.08 18.64 19.54 19.93 18.26C21.22 16.98 22.25 15.86 23 14.92C23.75 13.97 24.27 13.13 24.56 12.39C24.85 11.65 25 10.91 25 10.18C25 8.93 24.58 7.89 23.75 7.06C22.91 6.22 21.87 5.81 20.62 5.81C19.64 5.81 18.73 6.08 17.9 6.64C17.07 7.19 16.5 7.89 16.18 8.74L13.81 8.74C13.5 7.89 12.92 7.19 12.09 6.64C11.26 6.08 10.35 5.81 9.37 5.81C8.12 5.81 7.08 6.22 6.25 7.06C5.41 7.89 5 8.93 5 10.18C5 10.91 5.14 11.65 5.43 12.39C5.72 13.13 6.25 13.97 7 14.92C7.75 15.86 8.77 16.98 10.06 18.26C11.35 19.54 13 21.08 15 22.87Z" fill="#151515" fill-opacity="1.000000" fill-rule="nonzero"/>
	</g>
</svg>
