<svg width="35.000000" height="35.000000" viewBox="0 0 35 35" fill="none" xmlns="http://www.w3.org/2000/svg" xmlns:xlink="http://www.w3.org/1999/xlink">
	<desc>
			Created with Pixso.
	</desc>
	<defs>
		<clipPath id="clip44_101">
			<rect id="insta_logo" rx="-0.500000" width="34.000000" height="34.000000" transform="translate(0.500000 0.500000)" fill="white" fill-opacity="0"/>
		</clipPath>
	</defs>
	<rect id="insta_logo" rx="-0.500000" width="34.000000" height="34.000000" transform="translate(0.500000 0.500000)" fill="#FFFFFF" fill-opacity="0"/>
	<g clip-path="url(#clip44_101)">
		<path id="Vector" d="" fill="#2F88FF" fill-opacity="0" fill-rule="nonzero"/>
		<path id="Vector" d="M10.2 4.37C6.98 4.37 4.37 6.98 4.37 10.2L4.37 24.79C4.37 28.01 6.98 30.62 10.2 30.62L24.79 30.62C28.01 30.62 30.62 28.01 30.62 24.79L30.62 10.2C30.62 6.98 28.01 4.37 24.79 4.37L10.2 4.37Z" stroke="#E3E3E3" stroke-opacity="1.000000" stroke-width="2.916667" stroke-linejoin="round"/>
		<path id="Vector" d="" fill="#43CCF8" fill-opacity="0" fill-rule="nonzero"/>
		<path id="Vector" d="M23.33 17.5C23.33 14.27 20.72 11.66 17.5 11.66C14.27 11.66 11.66 14.27 11.66 17.5C11.66 20.72 14.27 23.33 17.5 23.33C20.72 23.33 23.33 20.72 23.33 17.5Z" stroke="#E3E3E3" stroke-opacity="1.000000" stroke-width="2.916667" stroke-linejoin="round"/>
		<path id="Vector" d="M25.52 10.93C26.32 10.93 26.97 10.28 26.97 9.47C26.97 8.67 26.32 8.02 25.52 8.02C24.71 8.02 24.06 8.67 24.06 9.47C24.06 10.28 24.71 10.93 25.52 10.93Z" fill="#E3E3E3" fill-opacity="1.000000" fill-rule="nonzero"/>
	</g>
</svg>
