<svg width="40.000000" height="40.000000" viewBox="0 0 40 40" fill="none" xmlns="http://www.w3.org/2000/svg" xmlns:xlink="http://www.w3.org/1999/xlink">
	<desc>
			Created with Pixso.
	</desc>
	<defs/>
	<mask id="mask49_1674" mask-type="alpha" maskUnits="userSpaceOnUse" x="0.000000" y="0.000000" width="40.000000" height="40.000000">
		<rect id="Bounding box" width="40.000000" height="40.000000" fill="#D9D9D9" fill-opacity="1.000000"/>
	</mask>
	<g mask="url(#mask49_1674)">
		<path id="local_shipping" d="M10 33.33C8.61 33.33 7.43 32.84 6.45 31.87C5.48 30.9 5 29.72 5 28.33L1.66 28.33L1.66 10C1.66 9.08 1.99 8.29 2.64 7.64C3.29 6.99 4.08 6.66 5 6.66L28.33 6.66L28.33 13.33L33.33 13.33L38.33 20L38.33 28.33L35 28.33C35 29.72 34.51 30.9 33.54 31.87C32.56 32.84 31.38 33.33 30 33.33C28.61 33.33 27.43 32.84 26.45 31.87C25.48 30.9 25 29.72 25 28.33L15 28.33C15 29.72 14.51 30.9 13.54 31.87C12.56 32.84 11.38 33.33 10 33.33ZM10 30C10.47 30 10.86 29.84 11.18 29.52C11.5 29.2 11.66 28.8 11.66 28.33C11.66 27.86 11.5 27.46 11.18 27.14C10.86 26.82 10.47 26.66 10 26.66C9.52 26.66 9.13 26.82 8.81 27.14C8.49 27.46 8.33 27.86 8.33 28.33C8.33 28.8 8.49 29.2 8.81 29.52C9.13 29.84 9.52 30 10 30ZM5 25L6.33 25C6.8 24.5 7.34 24.09 7.95 23.79C8.56 23.48 9.25 23.33 10 23.33C10.75 23.33 11.43 23.48 12.04 23.79C12.65 24.09 13.19 24.5 13.66 25L25 25L25 10L5 10L5 25ZM30 30C30.47 30 30.86 29.84 31.18 29.52C31.5 29.2 31.66 28.8 31.66 28.33C31.66 27.86 31.5 27.46 31.18 27.14C30.86 26.82 30.47 26.66 30 26.66C29.52 26.66 29.13 26.82 28.81 27.14C28.49 27.46 28.33 27.86 28.33 28.33C28.33 28.8 28.49 29.2 28.81 29.52C29.13 29.84 29.52 30 30 30ZM28.33 21.66L35.41 21.66L31.66 16.66L28.33 16.66L28.33 21.66Z" fill="#151515" fill-opacity="1.000000" fill-rule="nonzero"/>
	</g>
</svg>
