<svg width="188.992981" height="27.998047" viewBox="0 0 188.993 27.998" fill="none" xmlns="http://www.w3.org/2000/svg" xmlns:xlink="http://www.w3.org/1999/xlink">
	<desc>
			Created with Pixso.
	</desc>
	<defs/>
	<path id="BRANDER" d="M11.99 0L3.05e-5 0L3.05e-5 27.99L12.51 27.99Q15.15 27.99 17.03 27.44Q18.91 26.87 20.09 25.83Q20.75 25.26 21.21 24.55Q21.58 23.98 21.83 23.33Q22.39 21.87 22.39 20.07Q22.39 17.49 21.15 15.83Q21.08 15.74 21.01 15.65Q20.7 15.27 20.34 14.94Q19.09 13.83 17.23 13.39Q18.4 12.96 19.25 12.18Q19.74 11.74 20.13 11.18Q20.26 10.99 20.37 10.79Q21.2 9.37 21.2 7.48Q21.2 4.89 19.99 3.14Q19.55 2.5 18.95 1.98Q16.71 0 11.99 0ZM38.59 0L27.2 0L27.2 27.99L33.19 27.99L33.19 17.75L37.16 17.75L43.03 27.99L49.99 27.99L43.19 17.11Q45.9 16.29 47.38 14.46Q47.54 14.26 47.68 14.06Q48 13.6 48.25 13.11Q49.19 11.29 49.19 8.99Q49.19 6.96 48.5 5.3Q48.13 4.37 47.55 3.59Q47.09 2.98 46.51 2.46Q45.19 1.27 43.21 0.64Q41.23 0 38.59 0ZM60.15 22.27L70.51 22.27L72.67 27.99L78.99 27.99L68.59 0L62.59 0L52.19 27.99L58.03 27.99L60.15 22.27ZM88.27 0L82.6 0L82.6 27.99L88.59 27.99L88.59 10L100.92 27.99L106.59 27.99L106.59 0L100.59 0L100.59 17.99L88.27 0ZM122.79 0L113 0L113 27.99L122.39 27.99Q125.63 27.99 128.19 27.09Q130.61 26.24 132.33 24.64Q132.43 24.55 132.53 24.46Q132.61 24.37 132.7 24.29Q134.36 22.59 135.25 20.13Q136.19 17.55 136.19 14.19L136.19 13.39Q136.19 10.11 135.27 7.59Q134.35 5.07 132.63 3.39Q132.54 3.3 132.44 3.21Q130.78 1.67 128.43 0.85Q125.95 0 122.79 0ZM161 0L141.39 0L141.39 27.99L161 27.99L161 23.03L147.43 23.03L147.43 15.99L159.79 15.99L159.79 11.2L147.43 11.2L147.43 4.96L161 4.96L161 0ZM177.59 0L166.2 0L166.2 27.99L172.19 27.99L172.19 17.75L176.16 17.75L182.04 27.99L188.99 27.99L182.19 17.11Q184.9 16.29 186.38 14.46Q186.54 14.26 186.68 14.06Q187 13.6 187.25 13.11Q188.19 11.29 188.19 8.99Q188.19 6.96 187.5 5.3Q187.13 4.37 186.55 3.59Q186.09 2.98 185.51 2.46Q184.19 1.27 182.21 0.64Q180.23 0 177.59 0ZM14.2 10.6Q13.23 11.56 10.8 11.56L5.99 11.56L5.99 4.56L10.83 4.56Q13.28 4.56 14.23 5.43Q14.36 5.55 14.48 5.69Q15.19 6.54 15.19 7.99Q15.19 9.26 14.6 10.13Q14.43 10.38 14.2 10.6ZM40.16 12.78Q39.07 13.03 37.39 13.03L33.19 13.03L33.19 4.96L37.39 4.96Q39.07 4.96 40.16 5.22Q41.27 5.47 41.95 5.97Q42.38 6.28 42.65 6.7Q42.81 6.95 42.91 7.23Q43.19 7.99 43.19 8.99Q43.19 10 42.91 10.76Q42.82 10.99 42.7 11.2Q42.42 11.67 41.95 12.02Q41.27 12.51 40.16 12.78ZM125.03 22.57Q123.59 23.03 121.99 23.03L118.99 23.03L118.99 4.96L122.39 4.96Q123.95 4.96 125.33 5.4Q126.13 5.65 126.81 6.09Q127.3 6.42 127.73 6.84Q128.76 7.84 129.35 9.46Q129.95 11.07 129.95 13.39L129.95 14.19Q129.95 16.67 129.3 18.35Q128.67 20.03 127.57 21.08Q127.06 21.56 126.47 21.92Q125.8 22.33 125.03 22.57ZM179.16 12.78Q178.07 13.03 176.39 13.03L172.19 13.03L172.19 4.96L176.39 4.96Q178.07 4.96 179.16 5.22Q180.27 5.47 180.95 5.97Q181.38 6.28 181.65 6.7Q181.81 6.95 181.91 7.23Q182.19 7.99 182.19 8.99Q182.19 10 181.91 10.76Q181.82 10.99 181.7 11.2Q181.42 11.67 180.95 12.02Q180.27 12.51 179.16 12.78ZM68.72 17.31L61.99 17.31L65.36 7.59L68.72 17.31ZM15.31 22.48Q14.23 23.43 11.43 23.43L5.99 23.43L5.99 15.63L11.39 15.63Q14.23 15.63 15.31 16.69Q15.48 16.86 15.63 17.05Q16.39 18.05 16.39 19.63Q16.39 21.23 15.61 22.17Q15.47 22.33 15.31 22.48Z" fill="#151515" fill-opacity="1.000000" fill-rule="evenodd"/>
</svg>
