<svg width="30.000000" height="40.000000" viewBox="0 0 30 40" fill="none" xmlns="http://www.w3.org/2000/svg" xmlns:xlink="http://www.w3.org/1999/xlink">
	<desc>
			Created with Pixso.
	</desc>
	<defs/>
	<path id="Vector" d="M13.45 39.19C2.1 22.73 0 21.04 0 15C0 6.71 6.71 0 15 0C23.28 0 30 6.71 30 15C30 21.04 27.89 22.73 16.54 39.19C15.79 40.26 14.2 40.26 13.45 39.19ZM15 21.25C18.45 21.25 21.25 18.45 21.25 15C21.25 11.54 18.45 8.75 15 8.75C11.54 8.75 8.75 11.54 8.75 15C8.75 18.45 11.54 21.25 15 21.25Z" fill="#000000" fill-opacity="1.000000" fill-rule="nonzero"/>
</svg>
