<svg width="40.000000" height="40.000000" viewBox="0 0 40 40" fill="none" xmlns="http://www.w3.org/2000/svg" xmlns:xlink="http://www.w3.org/1999/xlink">
	<desc>
			Created with Pixso.
	</desc>
	<defs/>
	<mask id="mask49_1680" mask-type="alpha" maskUnits="userSpaceOnUse" x="0.000000" y="0.000000" width="40.000000" height="40.000000">
		<rect id="Bounding box" width="40.000000" height="40.000000" fill="#D9D9D9" fill-opacity="1.000000"/>
	</mask>
	<g mask="url(#mask49_1680)">
		<path id="package_2" d="M18.33 32.37L18.33 20.95L8.33 15.16L8.33 26.58L18.33 32.37ZM21.66 32.37L31.66 26.58L31.66 15.16L21.66 20.95L21.66 32.37ZM18.33 36.2L6.66 29.5C6.13 29.19 5.72 28.79 5.43 28.29C5.14 27.79 5 27.23 5 26.62L5 13.37C5 12.76 5.14 12.2 5.43 11.7C5.72 11.2 6.13 10.8 6.66 10.5L18.33 3.79C18.86 3.48 19.41 3.33 20 3.33C20.58 3.33 21.13 3.48 21.66 3.79L33.33 10.5C33.86 10.8 34.27 11.2 34.56 11.7C34.85 12.2 35 12.76 35 13.37L35 26.62C35 27.23 34.85 27.79 34.56 28.29C34.27 28.79 33.86 29.19 33.33 29.5L21.66 36.2C21.13 36.51 20.58 36.66 20 36.66C19.41 36.66 18.86 36.51 18.33 36.2ZM26.66 14.2L29.87 12.37L20 6.66L16.75 8.54L26.66 14.2ZM20 18.08L23.25 16.2L13.37 10.5L10.12 12.37L20 18.08Z" fill="#151515" fill-opacity="1.000000" fill-rule="nonzero"/>
	</g>
</svg>
