<svg width="30.000000" height="30.000000" viewBox="0 0 30 30" fill="none" xmlns="http://www.w3.org/2000/svg" xmlns:xlink="http://www.w3.org/1999/xlink">
	<desc>
			Created with Pixso.
	</desc>
	<defs/>
	<path id="Vector" d="M29.14 21.19L22.58 18.38C22.3 18.26 21.99 18.24 21.69 18.31C21.39 18.38 21.13 18.55 20.94 18.79L18.03 22.34C13.47 20.19 9.8 16.52 7.65 11.95L11.2 9.05C11.43 8.86 11.6 8.59 11.68 8.3C11.75 8 11.72 7.69 11.6 7.41L8.79 0.84C8.66 0.54 8.43 0.3 8.13 0.15C7.84 0 7.5 -0.04 7.18 0.03L1.08 1.44C0.78 1.51 0.5 1.68 0.3 1.93C0.1 2.18 0 2.49 0 2.81C0 17.84 12.18 30 27.18 30C27.5 30 27.81 29.89 28.06 29.69C28.31 29.49 28.48 29.22 28.55 28.91L29.96 22.81C30.03 22.49 29.99 22.15 29.84 21.85C29.69 21.56 29.44 21.33 29.14 21.19Z" fill="#000000" fill-opacity="1.000000" fill-rule="nonzero"/>
</svg>
