<svg width="35.000000" height="35.000000" viewBox="0 0 35 35" fill="none" xmlns="http://www.w3.org/2000/svg" xmlns:xlink="http://www.w3.org/1999/xlink">
	<desc>
			Created with Pixso.
	</desc>
	<defs>
		<clipPath id="clip47_160">
			<rect id="Frame" rx="-0.500000" width="34.000000" height="34.000000" transform="translate(0.500000 0.500000)" fill="white" fill-opacity="0"/>
		</clipPath>
	</defs>
	<rect id="Frame" rx="-0.500000" width="34.000000" height="34.000000" transform="translate(0.500000 0.500000)" fill="#FFFFFF" fill-opacity="0"/>
	<g clip-path="url(#clip47_160)">
		<path id="Vector" d="M26.97 12.39C27.78 12.39 28.43 13.04 28.43 13.85L28.43 29.89C28.43 30.7 27.78 31.35 26.97 31.35L8.02 31.35C7.21 31.35 6.56 30.7 6.56 29.89L6.56 13.85C6.56 13.04 7.21 12.39 8.02 12.39L26.97 12.39Z" stroke="#E3E3E3" stroke-opacity="1.000000" stroke-width="1.666667" stroke-linejoin="round"/>
		<path id="Vector" d="M24.06 6.56L20.41 12.39" stroke="#E3E3E3" stroke-opacity="1.000000" stroke-width="1.666667" stroke-linejoin="round" stroke-linecap="round"/>
		<path id="Vector" d="M10.93 6.56L14.58 12.39" stroke="#E3E3E3" stroke-opacity="1.000000" stroke-width="1.666667" stroke-linejoin="round" stroke-linecap="round"/>
		<path id="Vector" d="M24.79 6.56C23.98 6.56 23.33 5.9 23.33 5.1C23.33 4.29 23.98 3.64 24.79 3.64C25.59 3.64 26.25 4.29 26.25 5.1C26.25 5.9 25.59 6.56 24.79 6.56Z" stroke="#E3E3E3" stroke-opacity="1.000000" stroke-width="1.666667"/>
		<path id="Vector" d="M10.2 6.56C9.4 6.56 8.75 5.9 8.75 5.1C8.75 4.29 9.4 3.64 10.2 3.64C11.01 3.64 11.66 4.29 11.66 5.1C11.66 5.9 11.01 6.56 10.2 6.56Z" stroke="#E3E3E3" stroke-opacity="1.000000" stroke-width="1.666667"/>
		<path id="Vector" d="M20.41 17.5L14.58 17.5C12.97 17.5 11.66 18.8 11.66 20.41C11.66 22.02 12.97 23.33 14.58 23.33L20.41 23.33C22.02 23.33 23.33 22.02 23.33 20.41C23.33 18.8 22.02 17.5 20.41 17.5Z" fill="#B61E2E" fill-opacity="1.000000" fill-rule="nonzero"/>
		<path id="Vector" d="M20.41 17.5C22.02 17.5 23.33 18.8 23.33 20.41C23.33 22.02 22.02 23.33 20.41 23.33L14.58 23.33C12.97 23.33 11.66 22.02 11.66 20.41C11.66 18.8 12.97 17.5 14.58 17.5L20.41 17.5Z" stroke="#E3E3E3" stroke-opacity="1.000000" stroke-width="1.666667"/>
		<path id="Vector" d="M6.56 17.5L2.91 17.5L2.91 24.79L6.56 24.79" stroke="#E3E3E3" stroke-opacity="1.000000" stroke-width="1.666667" stroke-linejoin="round" stroke-linecap="round"/>
		<path id="Vector" d="M28.43 17.5L32.08 17.5L32.08 24.79L28.43 24.79" stroke="#E3E3E3" stroke-opacity="1.000000" stroke-width="1.666667" stroke-linejoin="round" stroke-linecap="round"/>
	</g>
</svg>
