<svg width="30.000000" height="30.000000" viewBox="0 0 30 30" fill="none" xmlns="http://www.w3.org/2000/svg" xmlns:xlink="http://www.w3.org/1999/xlink">
	<desc>
			Created with Pixso.
	</desc>
	<defs/>
	<mask id="mask3_7" mask-type="alpha" maskUnits="userSpaceOnUse" x="0.000000" y="0.000000" width="30.000000" height="30.000000">
		<rect id="Bounding box" width="30.000000" height="30.000000" fill="#D9D9D9" fill-opacity="1.000000"/>
	</mask>
	<g mask="url(#mask3_7)">
		<path id="search" d="M11.87 20C9.6 20 7.68 19.21 6.1 17.64C4.53 16.06 3.75 14.14 3.75 11.87C3.75 9.6 4.53 7.68 6.1 6.1C7.68 4.53 9.6 3.75 11.87 3.75C14.14 3.75 16.06 4.53 17.64 6.1C19.21 7.68 20 9.6 20 11.87C20 12.79 19.85 13.65 19.56 14.46C19.27 15.28 18.87 16 18.37 16.62L25.37 23.62C25.6 23.85 25.71 24.14 25.71 24.5C25.71 24.85 25.6 25.14 25.37 25.37C25.14 25.6 24.85 25.71 24.5 25.71C24.14 25.71 23.85 25.6 23.62 25.37L16.62 18.37C16 18.87 15.28 19.27 14.46 19.56C13.65 19.85 12.79 20 11.87 20ZM11.87 17.5C13.43 17.5 14.76 16.95 15.85 15.85C16.95 14.76 17.5 13.43 17.5 11.87C17.5 10.31 16.95 8.98 15.85 7.89C14.76 6.79 13.43 6.25 11.87 6.25C10.31 6.25 8.98 6.79 7.89 7.89C6.79 8.98 6.25 10.31 6.25 11.87C6.25 13.43 6.79 14.76 7.89 15.85C8.98 16.95 10.31 17.5 11.87 17.5Z" fill="#151515" fill-opacity="1.000000" fill-rule="nonzero"/>
	</g>
</svg>
