<svg width="22.000000" height="22.000000" viewBox="0 0 22 22" fill="none" xmlns="http://www.w3.org/2000/svg" xmlns:xlink="http://www.w3.org/1999/xlink">
	<desc>
			Created with Pixso.
	</desc>
	<defs/>
	<path id="search" d="M8.13 16.27C5.86 16.27 3.93 15.48 2.36 13.91C0.78 12.33 0 10.41 0 8.13C0 5.86 0.78 3.93 2.36 2.36C3.93 0.78 5.86 0 8.13 0C10.41 0 12.33 0.78 13.91 2.36C15.48 3.93 16.27 5.86 16.27 8.13C16.27 9.05 16.12 9.92 15.83 10.73C15.54 11.54 15.14 12.26 14.64 12.89L21.65 19.9C21.88 20.13 22 20.42 22 20.77C22 21.13 21.88 21.42 21.65 21.65C21.42 21.88 21.13 22 20.77 22C20.42 22 20.13 21.88 19.9 21.65L12.89 14.64C12.26 15.14 11.54 15.54 10.73 15.83C9.92 16.12 9.05 16.27 8.13 16.27ZM8.13 13.76C9.7 13.76 11.03 13.22 12.12 12.12C13.22 11.03 13.76 9.7 13.76 8.13C13.76 6.57 13.22 5.24 12.12 4.14C11.03 3.05 9.7 2.5 8.13 2.5C6.57 2.5 5.24 3.05 4.14 4.14C3.05 5.24 2.5 6.57 2.5 8.13C2.5 9.7 3.05 11.03 4.14 12.12C5.24 13.22 6.57 13.76 8.13 13.76Z" fill="#B2B2B2" fill-opacity="1.000000" fill-rule="nonzero"/>
</svg>
