<svg width="40.000000" height="40.000000" viewBox="0 0 40 40" fill="none" xmlns="http://www.w3.org/2000/svg" xmlns:xlink="http://www.w3.org/1999/xlink">
	<desc>
			Created with Pixso.
	</desc>
	<defs/>
	<mask id="mask49_1686" mask-type="alpha" maskUnits="userSpaceOnUse" x="0.000000" y="0.000000" width="40.000000" height="40.000000">
		<rect id="Bounding box" width="40.000000" height="40.000000" fill="#D9D9D9" fill-opacity="1.000000"/>
	</mask>
	<g mask="url(#mask49_1686)">
		<path id="verified_user" d="M18.25 25.91L27.66 16.5L25.29 14.12L18.25 21.16L14.75 17.66L12.37 20.04L18.25 25.91ZM20 36.66C16.13 35.69 12.95 33.47 10.43 30.02C7.92 26.56 6.66 22.72 6.66 18.5L6.66 8.33L20 3.33L33.33 8.33L33.33 18.5C33.33 22.72 32.07 26.56 29.56 30.02C27.04 33.47 23.86 35.69 20 36.66ZM20 33.16C22.88 32.25 25.27 30.41 27.16 27.66C29.05 24.91 30 21.86 30 18.5L30 10.62L20 6.87L10 10.62L10 18.5C10 21.86 10.94 24.91 12.83 27.66C14.72 30.41 17.11 32.25 20 33.16Z" fill="#151515" fill-opacity="1.000000" fill-rule="nonzero"/>
	</g>
</svg>
