<svg width="25.003418" height="21.249512" viewBox="0 0 25.0034 21.2495" fill="none" xmlns="http://www.w3.org/2000/svg" xmlns:xlink="http://www.w3.org/1999/xlink">
	<desc>
			Created with Pixso.
	</desc>
	<defs/>
	<path id="Vector" d="M11.15 1.91C9.92 0.68 8.26 0 6.52 0C4.79 0 3.12 0.68 1.9 1.91C0.68 3.14 0 4.8 0 6.53C0 8.26 0.68 9.93 1.9 11.16L11.61 20.88C11.73 21 11.86 21.09 12.02 21.15C12.17 21.21 12.33 21.25 12.5 21.24C12.66 21.25 12.82 21.21 12.98 21.15C13.13 21.09 13.27 21 13.38 20.88L23.1 11.16C24.32 9.93 25 8.26 25 6.53C25 4.8 24.32 3.14 23.1 1.91C21.87 0.68 20.21 0 18.47 0C16.74 0 15.07 0.68 13.85 1.91L12.5 3.26L11.15 1.91ZM12.5 18.94L21.68 9.75Q22.34 9.08 22.67 8.28Q23 7.47 23 6.53Q23 5.57 22.65 4.75Q22.33 3.97 21.68 3.32Q21.02 2.66 20.22 2.33Q19.41 2 18.47 2Q17.53 2 16.72 2.33Q15.92 2.66 15.26 3.32L12.5 6.09L9.73 3.32Q9.07 2.66 8.27 2.33Q7.46 2 6.52 2Q5.56 2 4.74 2.34Q3.96 2.67 3.32 3.31Q2.66 3.98 2.33 4.79Q2 5.59 2 6.53Q2 7.49 2.34 8.3Q2.66 9.09 3.31 9.74L12.5 18.94Z" fill="#151515" fill-opacity="1.000000" fill-rule="evenodd"/>
</svg>
